<svg width="1017" height="77" viewBox="0 0 1017 77" fill="none" xmlns="http://www.w3.org/2000/svg">
<g filter="url(#filter0_d_206_754)">
<path d="M996.528 20.9744C996.311 18.5786 995.341 16.7164 993.621 15.3878C991.922 14.0374 989.493 13.3622 986.335 13.3622C984.244 13.3622 982.502 13.6345 981.108 14.179C979.714 14.7235 978.669 15.4749 977.972 16.4332C977.275 17.3698 976.915 18.4479 976.893 19.6676C976.85 20.6695 977.046 21.5516 977.481 22.3139C977.939 23.0762 978.592 23.7514 979.442 24.3395C980.313 24.9058 981.358 25.4067 982.578 25.8423C983.798 26.2779 985.17 26.6591 986.695 26.9858L992.445 28.2926C995.755 29.0114 998.674 29.9697 1001.2 31.1676C1003.75 32.3655 1005.88 33.7921 1007.6 35.4474C1009.35 37.1027 1010.66 39.0085 1011.56 41.1648C1012.45 43.321 1012.91 45.7386 1012.93 48.4176C1012.91 52.643 1011.84 56.2694 1009.73 59.2969C1007.61 62.3243 1004.58 64.6439 1000.61 66.2557C996.67 67.8674 991.911 68.6733 986.335 68.6733C980.738 68.6733 975.859 67.8348 971.699 66.1577C967.539 64.4806 964.304 61.9323 961.996 58.5128C959.687 55.0933 958.5 50.7699 958.435 45.5426H973.92C974.051 47.6989 974.628 49.4957 975.652 50.9332C976.676 52.3707 978.08 53.4598 979.866 54.2003C981.674 54.9408 983.765 55.3111 986.139 55.3111C988.317 55.3111 990.168 55.017 991.693 54.429C993.24 53.8409 994.426 53.0242 995.254 51.9787C996.082 50.9332 996.507 49.7353 996.528 48.3849C996.507 47.1217 996.114 46.0436 995.352 45.1506C994.59 44.2358 993.414 43.4517 991.824 42.7983C990.256 42.1231 988.252 41.5024 985.812 40.9361L978.821 39.3026C973.027 37.974 968.464 35.8286 965.132 32.8665C961.8 29.8826 960.144 25.8532 960.166 20.7784C960.144 16.6402 961.255 13.0137 963.499 9.89915C965.742 6.78457 968.846 4.35606 972.81 2.61364C976.774 0.871214 981.293 0 986.368 0C991.552 0 996.049 0.882102 999.861 2.64631C1003.69 4.38873 1006.67 6.83902 1008.78 9.99716C1010.89 13.1553 1011.97 16.8144 1012.01 20.9744H996.528Z" fill="#F61919"/>
<path d="M886.101 67.8239V0.914776H932.754V14.0483H902.272V27.7699H930.369V40.9361H902.272V54.6903H932.754V67.8239H886.101Z" fill="#F61919"/>
<path d="M808.605 67.8239V0.914776H836.245C841.254 0.914776 845.578 1.89489 849.215 3.85512C852.874 5.79356 855.695 8.50521 857.677 11.9901C859.659 15.4531 860.65 19.4825 860.65 24.0781C860.65 28.6955 859.637 32.7358 857.611 36.1989C855.607 39.6402 852.743 42.3082 849.019 44.2031C845.294 46.098 840.873 47.0455 835.755 47.0455H818.701V34.304H832.749C835.188 34.304 837.225 33.8793 838.858 33.0298C840.514 32.1804 841.766 30.9934 842.615 29.4688C843.465 27.9223 843.89 26.1255 843.89 24.0781C843.89 22.009 843.465 20.223 842.615 18.7202C841.766 17.1956 840.514 16.0194 838.858 15.1918C837.203 14.3641 835.167 13.9503 832.749 13.9503H824.777V67.8239H808.605Z" fill="#F61919"/>
<path d="M734.622 67.8239H717.241L739.816 0.914776H761.346L783.922 67.8239H766.541L750.826 17.7727H750.304L734.622 67.8239ZM732.302 41.4915H768.632V53.7756H732.302V41.4915Z" fill="#F61919"/>
<path d="M633.848 67.8239V0.914776H650.02V27.7699H676.385V0.914776H692.524V67.8239H676.385V40.9361H650.02V67.8239H633.848Z" fill="#F61919"/>
<path d="M591.8 20.9744C591.582 18.5786 590.613 16.7164 588.892 15.3878C587.193 14.0374 584.765 13.3622 581.607 13.3622C579.516 13.3622 577.773 13.6345 576.379 14.179C574.985 14.7235 573.94 15.4749 573.243 16.4332C572.546 17.3698 572.187 18.4479 572.165 19.6676C572.121 20.6695 572.317 21.5516 572.753 22.3139C573.21 23.0762 573.864 23.7514 574.713 24.3395C575.584 24.9058 576.63 25.4067 577.85 25.8423C579.069 26.2779 580.441 26.6591 581.966 26.9858L587.716 28.2926C591.027 29.0114 593.945 29.9697 596.472 31.1676C599.02 32.3655 601.154 33.7921 602.875 35.4474C604.618 37.1027 605.935 39.0085 606.828 41.1648C607.721 43.321 608.179 45.7386 608.2 48.4176C608.179 52.643 607.111 56.2694 604.999 59.2969C602.886 62.3243 599.848 64.6439 595.884 66.2557C591.941 67.8674 587.182 68.6733 581.607 68.6733C576.009 68.6733 571.13 67.8348 566.97 66.1577C562.81 64.4806 559.576 61.9323 557.267 58.5128C554.958 55.0933 553.771 50.7699 553.706 45.5426H569.192C569.323 47.6989 569.9 49.4957 570.923 50.9332C571.947 52.3707 573.352 53.4598 575.138 54.2003C576.946 54.9408 579.037 55.3111 581.411 55.3111C583.589 55.3111 585.44 55.017 586.965 54.429C588.511 53.8409 589.698 53.0242 590.526 51.9787C591.353 50.9332 591.778 49.7353 591.8 48.3849C591.778 47.1217 591.386 46.0436 590.624 45.1506C589.861 44.2358 588.685 43.4517 587.095 42.7983C585.527 42.1231 583.523 41.5024 581.084 40.9361L574.092 39.3026C568.299 37.974 563.736 35.8286 560.404 32.8665C557.071 29.8826 555.416 25.8532 555.438 20.7784C555.416 16.6402 556.527 13.0137 558.77 9.89915C561.013 6.78457 564.117 4.35606 568.081 2.61364C572.045 0.871214 576.564 0 581.639 0C586.823 0 591.321 0.882102 595.132 2.64631C598.966 4.38873 601.939 6.83902 604.051 9.99716C606.164 13.1553 607.242 16.8144 607.286 20.9744H591.8Z" fill="#F61919"/>
<path d="M490.74 0.914776V67.8239H477.018L450.392 29.2074H449.967V67.8239H433.795V0.914776H447.713L474.045 39.4659H474.6V0.914776H490.74Z" fill="#F61919"/>
<path d="M355.4 67.8239V0.914776H383.04C388.049 0.914776 392.372 1.81866 396.01 3.62642C399.669 5.41241 402.489 7.98248 404.471 11.3367C406.453 14.669 407.444 18.6222 407.444 23.196C407.444 27.8352 406.432 31.7775 404.406 35.0227C402.38 38.2462 399.505 40.7074 395.781 42.4063C392.057 44.0833 387.646 44.9219 382.55 44.9219H365.071V32.1804H379.544C381.983 32.1804 384.02 31.8646 385.653 31.233C387.309 30.5796 388.561 29.5994 389.41 28.2926C390.26 26.964 390.684 25.2652 390.684 23.196C390.684 21.1269 390.26 19.4171 389.41 18.0668C388.561 16.6946 387.309 15.6709 385.653 14.9957C383.998 14.2988 381.961 13.9503 379.544 13.9503H371.572V67.8239H355.4ZM393.069 37.2443L409.731 67.8239H392.089L375.754 37.2443H393.069Z" fill="#F61919"/>
<path d="M281.14 67.8239V0.914776H327.793V14.0483H297.312V27.7699H325.408V40.9361H297.312V54.6903H327.793V67.8239H281.14Z" fill="#F61919"/>
<path d="M221.188 67.8239H196.456V0.914776H221.155C227.972 0.914776 233.842 2.25426 238.764 4.93324C243.708 7.59044 247.52 11.4238 250.199 16.4332C252.878 21.4209 254.217 27.3887 254.217 34.3367C254.217 41.3063 252.878 47.2959 250.199 52.3054C247.542 57.3149 243.741 61.1591 238.797 63.8381C233.853 66.4953 227.983 67.8239 221.188 67.8239ZM212.628 54.0369H220.567C224.313 54.0369 227.482 53.4053 230.074 52.1421C232.688 50.857 234.659 48.777 235.987 45.902C237.338 43.0052 238.013 39.1501 238.013 34.3367C238.013 29.5232 237.338 25.6899 235.987 22.8367C234.637 19.9617 232.644 17.8925 230.009 16.6293C227.395 15.3442 224.171 14.7017 220.338 14.7017H212.628V54.0369Z" fill="#F61919"/>
<path d="M169.535 34.3693C169.535 41.7311 168.119 47.9711 165.288 53.0895C162.456 58.2079 158.623 62.0956 153.788 64.7528C148.974 67.41 143.573 68.7386 137.583 68.7386C131.572 68.7386 126.159 67.3992 121.346 64.7202C116.532 62.0412 112.71 58.1534 109.879 53.0568C107.069 47.9385 105.664 41.7093 105.664 34.3693C105.664 27.0076 107.069 20.7675 109.879 15.6491C112.71 10.5308 116.532 6.64299 121.346 3.9858C126.159 1.3286 131.572 0 137.583 0C143.573 0 148.974 1.3286 153.788 3.9858C158.623 6.64299 162.456 10.5308 165.288 15.6491C168.119 20.7675 169.535 27.0076 169.535 34.3693ZM153.004 34.3693C153.004 30.0133 152.383 26.3324 151.141 23.3267C149.922 20.321 148.157 18.045 145.849 16.4986C143.562 14.9522 140.807 14.179 137.583 14.179C134.381 14.179 131.626 14.9522 129.317 16.4986C127.009 18.045 125.234 20.321 123.992 23.3267C122.772 26.3324 122.163 30.0133 122.163 34.3693C122.163 38.7254 122.772 42.4062 123.992 45.4119C125.234 48.4176 127.009 50.6937 129.317 52.2401C131.626 53.7865 134.381 54.5597 137.583 54.5597C140.807 54.5597 143.562 53.7865 145.849 52.2401C148.157 50.6937 149.922 48.4176 151.141 45.4119C152.383 42.4062 153.004 38.7254 153.004 34.3693Z" fill="#F61919"/>
<path d="M4 0.914776H24.027L41.0156 42.3409H41.7997L58.7884 0.914776H78.8153V67.8239H63.0682V26.7244H62.5128L46.4389 67.3992H36.3764L20.3026 26.4957H19.7472V67.8239H4V0.914776Z" fill="#F61919"/>
<ellipse cx="138.484" cy="35.3239" rx="20.5" ry="24.5" fill="#F61919"/>
<path d="M733.984 67.8239L750.484 11.8239L766.984 67.8239H733.984Z" fill="#F61919"/>
</g>
<defs>
<filter id="filter0_d_206_754" x="0" y="0" width="1016.93" height="76.7386" filterUnits="userSpaceOnUse" color-interpolation-filters="sRGB">
<feFlood flood-opacity="0" result="BackgroundImageFix"/>
<feColorMatrix in="SourceAlpha" type="matrix" values="0 0 0 0 0 0 0 0 0 0 0 0 0 0 0 0 0 0 127 0" result="hardAlpha"/>
<feOffset dy="4"/>
<feGaussianBlur stdDeviation="2"/>
<feComposite in2="hardAlpha" operator="out"/>
<feColorMatrix type="matrix" values="0 0 0 0 0 0 0 0 0 0 0 0 0 0 0 0 0 0 0.25 0"/>
<feBlend mode="normal" in2="BackgroundImageFix" result="effect1_dropShadow_206_754"/>
<feBlend mode="normal" in="SourceGraphic" in2="effect1_dropShadow_206_754" result="shape"/>
</filter>
</defs>
</svg>
